<svg width="20" height="16" viewBox="0 0 20 16" fill="none" xmlns="http://www.w3.org/2000/svg">
<path fill-rule="evenodd" clip-rule="evenodd" d="M3.96802 4.32668e-07H16.032C16.4706 -9.56733e-06 16.8491 -1.96602e-05 17.1624 0.0213503C17.4922 0.0438603 17.8221 0.0933606 18.1481 0.228361C18.8831 0.532841 19.4672 1.11687 19.7716 1.85195C19.9066 2.17788 19.9561 2.50779 19.9787 2.83762C20 3.15088 20 3.52936 20 3.96801V12.032C20 12.4706 20 12.8491 19.9787 13.1624C19.9561 13.4922 19.9066 13.8221 19.7716 14.1481C19.4672 14.8831 18.8831 15.4672 18.1481 15.7716C17.8221 15.9066 17.4922 15.9561 17.1624 15.9787C16.8491 16 16.4706 16 16.032 16H3.96801C3.52936 16 3.15088 16 2.83762 15.9787C2.50779 15.9561 2.17788 15.9066 1.85195 15.7716C1.11687 15.4672 0.53284 14.8831 0.22836 14.1481C0.0933604 13.8221 0.0438603 13.4922 0.0213503 13.1624C-1.96602e-05 12.8491 -9.56733e-06 12.4706 4.32668e-07 12.032V3.96802C-9.56733e-06 3.52937 -1.96602e-05 3.15088 0.0213503 2.83762C0.0438603 2.50779 0.0933604 2.17788 0.22836 1.85195C0.53284 1.11687 1.11687 0.532841 1.85195 0.228361C2.17788 0.0933606 2.50779 0.0438603 2.83762 0.0213503C3.15088 -1.96602e-05 3.52937 -9.56733e-06 3.96802 4.32668e-07ZM2.31745 2.27777C2.68114 1.86214 3.3129 1.82002 3.72854 2.1837L9.3415 7.095C9.7185 7.4249 10.2815 7.4249 10.6585 7.095L16.2715 2.1837C16.6871 1.82002 17.3189 1.86214 17.6825 2.27777C18.0462 2.69341 18.0041 3.32517 17.5885 3.68885L11.9755 8.6002C10.8444 9.5899 9.1556 9.5899 8.0245 8.6002L2.41153 3.68885C1.99589 3.32517 1.95377 2.69341 2.31745 2.27777Z" fill="white"/>
</svg>
