<svg width="20" height="19" viewBox="0 0 20 19" fill="none" xmlns="http://www.w3.org/2000/svg">
<path fill-rule="evenodd" clip-rule="evenodd" d="M2.804 18.644C3.1987 18.715 3.59897 18.7505 4 18.75C5.26747 18.7517 6.50959 18.395 7.583 17.721C8.357 17.903 9.167 18 10 18C15.322 18 19.75 14.03 19.75 9C19.75 3.97 15.322 0 10 0C4.678 0 0.25 3.97 0.25 9C0.25 11.409 1.275 13.587 2.924 15.192C3.156 15.418 3.201 15.62 3.178 15.735C3.05442 16.3571 2.77426 16.9373 2.364 17.421C2.27883 17.5215 2.22165 17.6428 2.19823 17.7724C2.17481 17.9021 2.18596 18.0357 2.23057 18.1597C2.27518 18.2836 2.35167 18.3937 2.45233 18.4787C2.553 18.5638 2.67429 18.6208 2.804 18.644ZM6.25 7.875C5.95163 7.875 5.66548 7.99353 5.4545 8.2045C5.24353 8.41548 5.125 8.70163 5.125 9C5.125 9.29837 5.24353 9.58452 5.4545 9.7955C5.66548 10.0065 5.95163 10.125 6.25 10.125C6.54837 10.125 6.83452 10.0065 7.0455 9.7955C7.25647 9.58452 7.375 9.29837 7.375 9C7.375 8.70163 7.25647 8.41548 7.0455 8.2045C6.83452 7.99353 6.54837 7.875 6.25 7.875ZM8.875 9C8.875 8.70163 8.99353 8.41548 9.2045 8.2045C9.41548 7.99353 9.70163 7.875 10 7.875C10.2984 7.875 10.5845 7.99353 10.7955 8.2045C11.0065 8.41548 11.125 8.70163 11.125 9C11.125 9.29837 11.0065 9.58452 10.7955 9.7955C10.5845 10.0065 10.2984 10.125 10 10.125C9.70163 10.125 9.41548 10.0065 9.2045 9.7955C8.99353 9.58452 8.875 9.29837 8.875 9ZM13.75 7.875C13.4516 7.875 13.1655 7.99353 12.9545 8.2045C12.7435 8.41548 12.625 8.70163 12.625 9C12.625 9.29837 12.7435 9.58452 12.9545 9.7955C13.1655 10.0065 13.4516 10.125 13.75 10.125C14.0484 10.125 14.3345 10.0065 14.5455 9.7955C14.7565 9.58452 14.875 9.29837 14.875 9C14.875 8.70163 14.7565 8.41548 14.5455 8.2045C14.3345 7.99353 14.0484 7.875 13.75 7.875Z" fill="white"/>
</svg>
